<mxfile host="app.diagrams.net" modified="2023-07-19T17:34:03.983Z" agent="Mozilla/5.0 (X11; Ubuntu; Linux x86_64; rv:109.0) Gecko/20100101 Firefox/115.0" etag="0GHkgv4oM3O3S-WZYV-I" version="21.6.3" type="github">
  <diagram name="Page-1" id="_-FrXYDARwSiVXV6ecAJ">
    <mxGraphModel dx="648" dy="379" grid="1" gridSize="10" guides="1" tooltips="1" connect="1" arrows="1" fold="1" page="1" pageScale="1" pageWidth="850" pageHeight="1100" math="0" shadow="0">
      <root>
        <mxCell id="0" />
        <mxCell id="1" parent="0" />
        <mxCell id="ru5O9yawXyW8fXFh0MPs-1" value="&lt;b&gt;START&lt;/b&gt;" style="strokeWidth=2;html=1;shape=mxgraph.flowchart.start_1;whiteSpace=wrap;" vertex="1" parent="1">
          <mxGeometry x="375" y="80" width="100" height="60" as="geometry" />
        </mxCell>
        <mxCell id="ru5O9yawXyW8fXFh0MPs-2" value="" style="endArrow=classic;html=1;rounded=0;exitX=0.5;exitY=1;exitDx=0;exitDy=0;exitPerimeter=0;" edge="1" parent="1" source="ru5O9yawXyW8fXFh0MPs-1">
          <mxGeometry width="50" height="50" relative="1" as="geometry">
            <mxPoint x="400" y="350" as="sourcePoint" />
            <mxPoint x="425" y="210" as="targetPoint" />
          </mxGeometry>
        </mxCell>
        <mxCell id="ru5O9yawXyW8fXFh0MPs-3" value="ENTER NUMBER" style="rounded=1;whiteSpace=wrap;html=1;absoluteArcSize=1;arcSize=14;strokeWidth=2;" vertex="1" parent="1">
          <mxGeometry x="370" y="210" width="115" height="60" as="geometry" />
        </mxCell>
        <mxCell id="ru5O9yawXyW8fXFh0MPs-4" value="C = 2" style="rounded=1;whiteSpace=wrap;html=1;absoluteArcSize=1;arcSize=14;strokeWidth=2;" vertex="1" parent="1">
          <mxGeometry x="370" y="330" width="115" height="60" as="geometry" />
        </mxCell>
        <mxCell id="ru5O9yawXyW8fXFh0MPs-5" value="" style="endArrow=classic;html=1;rounded=0;exitX=0.41;exitY=1.022;exitDx=0;exitDy=0;exitPerimeter=0;entryX=0.542;entryY=-0.076;entryDx=0;entryDy=0;entryPerimeter=0;" edge="1" parent="1" source="ru5O9yawXyW8fXFh0MPs-3" target="ru5O9yawXyW8fXFh0MPs-4">
          <mxGeometry width="50" height="50" relative="1" as="geometry">
            <mxPoint x="450" y="350" as="sourcePoint" />
            <mxPoint x="500" y="300" as="targetPoint" />
          </mxGeometry>
        </mxCell>
        <mxCell id="ru5O9yawXyW8fXFh0MPs-7" value="IF C &amp;lt; N" style="strokeWidth=2;html=1;shape=mxgraph.flowchart.decision;whiteSpace=wrap;" vertex="1" parent="1">
          <mxGeometry x="377.5" y="430" width="100" height="80" as="geometry" />
        </mxCell>
      </root>
    </mxGraphModel>
  </diagram>
</mxfile>
